<mxfile host="app.diagrams.net" agent="Mozilla/5.0 (Windows NT 10.0; Win64; x64) AppleWebKit/537.36 (KHTML, like Gecko) Chrome/131.0.0.0 Safari/537.36" version="26.0.5" pages="3">
  <diagram name="Gestão de Acesso" id="8N40wqbtbeFvAl5yV49m">
    <mxGraphModel dx="2336" dy="1982" grid="1" gridSize="10" guides="1" tooltips="1" connect="1" arrows="1" fold="1" page="1" pageScale="1" pageWidth="827" pageHeight="1169" math="0" shadow="0">
      <root>
        <mxCell id="0" />
        <mxCell id="1" parent="0" />
        <mxCell id="3wg3RD2jczcf7ODiy101-9" value="" style="rounded=0;whiteSpace=wrap;html=1;" vertex="1" parent="1">
          <mxGeometry x="-100" y="-100" width="1020" height="590" as="geometry" />
        </mxCell>
        <mxCell id="TyDgCIvwNf39kWouRKsn-1" value="" style="verticalLabelPosition=bottom;verticalAlign=top;html=1;shape=mxgraph.basic.rect;fillColor2=none;strokeWidth=1;size=20;indent=5;" parent="1" vertex="1">
          <mxGeometry x="116.75" y="-40" width="612" height="470" as="geometry" />
        </mxCell>
        <mxCell id="TyDgCIvwNf39kWouRKsn-2" value="&lt;font style=&quot;font-size: 18px;&quot;&gt;Gestão de Acesso&lt;/font&gt;&lt;div&gt;&lt;br&gt;&lt;/div&gt;" style="text;strokeColor=none;fillColor=none;align=left;verticalAlign=middle;spacingLeft=4;spacingRight=4;overflow=hidden;points=[[0,0.5],[1,0.5]];portConstraint=eastwest;rotatable=0;whiteSpace=wrap;html=1;" parent="1" vertex="1">
          <mxGeometry x="342.75" y="-30" width="160" height="30" as="geometry" />
        </mxCell>
        <mxCell id="TyDgCIvwNf39kWouRKsn-4" value="Fazer Login" style="ellipse;whiteSpace=wrap;html=1;" parent="1" vertex="1">
          <mxGeometry x="178.75" y="65" width="140" height="70" as="geometry" />
        </mxCell>
        <mxCell id="TyDgCIvwNf39kWouRKsn-5" value="Cadastrar Conta&amp;nbsp;" style="ellipse;whiteSpace=wrap;html=1;" parent="1" vertex="1">
          <mxGeometry x="178.75" y="220" width="140" height="70" as="geometry" />
        </mxCell>
        <mxCell id="TyDgCIvwNf39kWouRKsn-12" style="edgeStyle=orthogonalEdgeStyle;rounded=0;orthogonalLoop=1;jettySize=auto;html=1;endArrow=none;endFill=0;" parent="1" source="TyDgCIvwNf39kWouRKsn-6" edge="1">
          <mxGeometry relative="1" as="geometry">
            <Array as="points">
              <mxPoint x="759" y="180" />
              <mxPoint x="759" y="255" />
            </Array>
            <mxPoint x="670" y="255" as="targetPoint" />
          </mxGeometry>
        </mxCell>
        <mxCell id="TyDgCIvwNf39kWouRKsn-32" style="edgeStyle=orthogonalEdgeStyle;rounded=0;orthogonalLoop=1;jettySize=auto;html=1;endArrow=none;endFill=0;" parent="1" source="TyDgCIvwNf39kWouRKsn-6" edge="1">
          <mxGeometry relative="1" as="geometry">
            <Array as="points">
              <mxPoint x="759" y="170" />
              <mxPoint x="759" y="65" />
            </Array>
            <mxPoint x="600" y="65" as="targetPoint" />
          </mxGeometry>
        </mxCell>
        <mxCell id="TyDgCIvwNf39kWouRKsn-6" value="Sistema" style="shape=umlActor;verticalLabelPosition=bottom;verticalAlign=top;html=1;" parent="1" vertex="1">
          <mxGeometry x="788.75" y="135" width="30" height="60" as="geometry" />
        </mxCell>
        <mxCell id="TyDgCIvwNf39kWouRKsn-7" value="Verificar as Credenciais do Login" style="ellipse;whiteSpace=wrap;html=1;" parent="1" vertex="1">
          <mxGeometry x="448.75" y="30" width="140" height="70" as="geometry" />
        </mxCell>
        <mxCell id="TyDgCIvwNf39kWouRKsn-8" value="Salvar Conta" style="ellipse;whiteSpace=wrap;html=1;" parent="1" vertex="1">
          <mxGeometry x="518.75" y="220" width="140" height="70" as="geometry" />
        </mxCell>
        <mxCell id="TyDgCIvwNf39kWouRKsn-13" value="Recuperar Senha" style="ellipse;whiteSpace=wrap;html=1;" parent="1" vertex="1">
          <mxGeometry x="448.75" y="120" width="140" height="70" as="geometry" />
        </mxCell>
        <mxCell id="TyDgCIvwNf39kWouRKsn-14" value="&amp;lt;&amp;lt;extend&amp;gt;&amp;gt;" style="endArrow=open;endSize=12;dashed=1;html=1;rounded=0;exitX=0;exitY=0.5;exitDx=0;exitDy=0;entryX=1;entryY=1;entryDx=0;entryDy=0;" parent="1" source="TyDgCIvwNf39kWouRKsn-13" target="TyDgCIvwNf39kWouRKsn-4" edge="1">
          <mxGeometry x="-0.0053" width="160" relative="1" as="geometry">
            <mxPoint x="378.75" y="390" as="sourcePoint" />
            <mxPoint x="538.75" y="390" as="targetPoint" />
            <mxPoint as="offset" />
          </mxGeometry>
        </mxCell>
        <mxCell id="TyDgCIvwNf39kWouRKsn-15" value="&amp;lt;&amp;lt;include&amp;gt;&amp;gt;" style="endArrow=open;endSize=12;dashed=1;html=1;rounded=0;exitX=1;exitY=0;exitDx=0;exitDy=0;entryX=0;entryY=0.5;entryDx=0;entryDy=0;" parent="1" source="TyDgCIvwNf39kWouRKsn-4" target="TyDgCIvwNf39kWouRKsn-7" edge="1">
          <mxGeometry width="160" relative="1" as="geometry">
            <mxPoint x="268.75" y="60" as="sourcePoint" />
            <mxPoint x="428.75" y="60" as="targetPoint" />
          </mxGeometry>
        </mxCell>
        <mxCell id="TyDgCIvwNf39kWouRKsn-22" value="&amp;lt;&amp;lt;extend&amp;gt;&amp;gt;" style="endArrow=open;endSize=12;dashed=1;html=1;rounded=0;exitX=0;exitY=0.5;exitDx=0;exitDy=0;entryX=1;entryY=0.5;entryDx=0;entryDy=0;" parent="1" source="TyDgCIvwNf39kWouRKsn-8" target="TyDgCIvwNf39kWouRKsn-5" edge="1">
          <mxGeometry width="160" relative="1" as="geometry">
            <mxPoint x="338.75" y="190" as="sourcePoint" />
            <mxPoint x="498.75" y="190" as="targetPoint" />
          </mxGeometry>
        </mxCell>
        <mxCell id="TyDgCIvwNf39kWouRKsn-26" style="edgeStyle=orthogonalEdgeStyle;rounded=0;orthogonalLoop=1;jettySize=auto;html=1;dashed=1;startArrow=none;startFill=0;endArrow=none;endFill=0;" parent="1" source="TyDgCIvwNf39kWouRKsn-23" edge="1">
          <mxGeometry relative="1" as="geometry">
            <mxPoint x="468.75" y="260" as="targetPoint" />
          </mxGeometry>
        </mxCell>
        <mxCell id="TyDgCIvwNf39kWouRKsn-23" value="Os dados só serão salvos se o usuário confirmar o cadastro&amp;nbsp;" style="shape=note;whiteSpace=wrap;html=1;backgroundOutline=1;darkOpacity=0.05;align=left;size=22;" parent="1" vertex="1">
          <mxGeometry x="368.75" y="320" width="200" height="80" as="geometry" />
        </mxCell>
        <mxCell id="tZHH8F1rTrN4c0tKCBvP-14" style="edgeStyle=orthogonalEdgeStyle;rounded=0;orthogonalLoop=1;jettySize=auto;html=1;endArrow=none;endFill=0;" parent="1" source="tZHH8F1rTrN4c0tKCBvP-1" edge="1">
          <mxGeometry relative="1" as="geometry">
            <Array as="points">
              <mxPoint x="90" y="70" />
              <mxPoint x="90" y="100" />
            </Array>
            <mxPoint x="170" y="100" as="targetPoint" />
          </mxGeometry>
        </mxCell>
        <mxCell id="tZHH8F1rTrN4c0tKCBvP-1" value="Usuário" style="shape=umlActor;verticalLabelPosition=bottom;verticalAlign=top;html=1;" parent="1" vertex="1">
          <mxGeometry x="-10" y="40" width="30" height="60" as="geometry" />
        </mxCell>
        <mxCell id="tZHH8F1rTrN4c0tKCBvP-10" style="edgeStyle=orthogonalEdgeStyle;rounded=0;orthogonalLoop=1;jettySize=auto;html=1;endArrow=none;endFill=0;" parent="1" source="tZHH8F1rTrN4c0tKCBvP-2" edge="1">
          <mxGeometry relative="1" as="geometry">
            <Array as="points">
              <mxPoint x="80" y="195" />
              <mxPoint x="80" y="255" />
            </Array>
            <mxPoint x="170" y="255" as="targetPoint" />
          </mxGeometry>
        </mxCell>
        <mxCell id="tZHH8F1rTrN4c0tKCBvP-2" value="Aluno" style="shape=umlActor;verticalLabelPosition=bottom;verticalAlign=top;html=1;" parent="1" vertex="1">
          <mxGeometry x="40" y="165" width="30" height="60" as="geometry" />
        </mxCell>
        <mxCell id="tZHH8F1rTrN4c0tKCBvP-3" value="Administrador" style="shape=umlActor;verticalLabelPosition=bottom;verticalAlign=top;html=1;" parent="1" vertex="1">
          <mxGeometry x="-70" y="165" width="30" height="60" as="geometry" />
        </mxCell>
        <mxCell id="tZHH8F1rTrN4c0tKCBvP-6" value="" style="endArrow=open;endFill=1;endSize=12;html=1;rounded=0;" parent="1" source="tZHH8F1rTrN4c0tKCBvP-3" edge="1">
          <mxGeometry width="160" relative="1" as="geometry">
            <mxPoint x="-40" y="160" as="sourcePoint" />
            <mxPoint x="-20" y="120" as="targetPoint" />
          </mxGeometry>
        </mxCell>
        <mxCell id="tZHH8F1rTrN4c0tKCBvP-8" value="" style="endArrow=open;endFill=1;endSize=12;html=1;rounded=0;" parent="1" edge="1">
          <mxGeometry width="160" relative="1" as="geometry">
            <mxPoint x="50" y="160" as="sourcePoint" />
            <mxPoint x="30" y="120" as="targetPoint" />
          </mxGeometry>
        </mxCell>
      </root>
    </mxGraphModel>
  </diagram>
  <diagram id="oM7L3WJhsqWXN7M75PBa" name="Funcinalidades do Estudante">
    <mxGraphModel dx="2336" dy="813" grid="1" gridSize="10" guides="1" tooltips="1" connect="1" arrows="1" fold="1" page="1" pageScale="1" pageWidth="827" pageHeight="1169" math="0" shadow="0">
      <root>
        <mxCell id="0" />
        <mxCell id="1" parent="0" />
        <mxCell id="cYFuPt2tWT9Ru8syQzS9-1" value="" style="rounded=0;whiteSpace=wrap;html=1;" vertex="1" parent="1">
          <mxGeometry x="-77" y="150" width="980" height="740" as="geometry" />
        </mxCell>
        <mxCell id="_A9WrMa4JBnbBtpXVdZy-1" value="" style="rounded=0;whiteSpace=wrap;html=1;" vertex="1" parent="1">
          <mxGeometry x="60" y="180" width="730" height="659" as="geometry" />
        </mxCell>
        <mxCell id="_A9WrMa4JBnbBtpXVdZy-2" value="Se a resposta já estiver salva, não será necessário gerar a explicação da IA" style="shape=note;whiteSpace=wrap;html=1;backgroundOutline=1;darkOpacity=0.05;align=left;size=24;" vertex="1" parent="1">
          <mxGeometry x="570" y="234" width="200" height="100" as="geometry" />
        </mxCell>
        <mxCell id="_A9WrMa4JBnbBtpXVdZy-3" style="edgeStyle=orthogonalEdgeStyle;rounded=0;orthogonalLoop=1;jettySize=auto;html=1;exitX=0.5;exitY=1;exitDx=0;exitDy=0;exitPerimeter=0;" edge="1" parent="1" source="_A9WrMa4JBnbBtpXVdZy-2" target="_A9WrMa4JBnbBtpXVdZy-2">
          <mxGeometry relative="1" as="geometry" />
        </mxCell>
        <mxCell id="_A9WrMa4JBnbBtpXVdZy-4" value="" style="endArrow=none;dashed=1;endFill=0;endSize=12;html=1;rounded=0;entryX=0.176;entryY=1.016;entryDx=0;entryDy=0;entryPerimeter=0;" edge="1" parent="1" target="_A9WrMa4JBnbBtpXVdZy-2">
          <mxGeometry width="160" relative="1" as="geometry">
            <mxPoint x="580" y="439" as="sourcePoint" />
            <mxPoint x="570" y="318.9999999999999" as="targetPoint" />
          </mxGeometry>
        </mxCell>
        <mxCell id="_A9WrMa4JBnbBtpXVdZy-5" style="edgeStyle=orthogonalEdgeStyle;rounded=0;orthogonalLoop=1;jettySize=auto;html=1;endArrow=none;endFill=0;" edge="1" parent="1">
          <mxGeometry relative="1" as="geometry">
            <mxPoint y="309" as="sourcePoint" />
            <Array as="points">
              <mxPoint y="309" />
              <mxPoint x="40" y="309" />
              <mxPoint x="40" y="259" />
            </Array>
            <mxPoint x="110" y="259" as="targetPoint" />
          </mxGeometry>
        </mxCell>
        <mxCell id="_A9WrMa4JBnbBtpXVdZy-6" style="edgeStyle=orthogonalEdgeStyle;rounded=0;orthogonalLoop=1;jettySize=auto;html=1;endArrow=none;endFill=0;" edge="1" parent="1">
          <mxGeometry relative="1" as="geometry">
            <mxPoint y="319" as="sourcePoint" />
            <Array as="points">
              <mxPoint y="319" />
              <mxPoint x="40" y="319" />
              <mxPoint x="40" y="354" />
            </Array>
            <mxPoint x="110" y="354" as="targetPoint" />
          </mxGeometry>
        </mxCell>
        <mxCell id="_A9WrMa4JBnbBtpXVdZy-7" style="edgeStyle=orthogonalEdgeStyle;rounded=0;orthogonalLoop=1;jettySize=auto;html=1;endArrow=none;endFill=0;" edge="1" parent="1">
          <mxGeometry relative="1" as="geometry">
            <mxPoint y="349" as="sourcePoint" />
            <Array as="points">
              <mxPoint x="10" y="349" />
              <mxPoint x="10" y="749" />
            </Array>
            <mxPoint x="110" y="749" as="targetPoint" />
          </mxGeometry>
        </mxCell>
        <mxCell id="_A9WrMa4JBnbBtpXVdZy-8" style="edgeStyle=orthogonalEdgeStyle;rounded=0;orthogonalLoop=1;jettySize=auto;html=1;endArrow=none;endFill=0;" edge="1" parent="1">
          <mxGeometry relative="1" as="geometry">
            <mxPoint y="326.5" as="sourcePoint" />
            <Array as="points">
              <mxPoint x="30" y="327" />
              <mxPoint x="30" y="498" />
            </Array>
            <mxPoint x="100" y="498" as="targetPoint" />
          </mxGeometry>
        </mxCell>
        <mxCell id="_A9WrMa4JBnbBtpXVdZy-9" style="edgeStyle=orthogonalEdgeStyle;rounded=0;orthogonalLoop=1;jettySize=auto;html=1;endArrow=none;endFill=0;" edge="1" parent="1">
          <mxGeometry relative="1" as="geometry">
            <mxPoint y="339" as="sourcePoint" />
            <Array as="points">
              <mxPoint x="20" y="339" />
              <mxPoint x="20" y="624" />
            </Array>
            <mxPoint x="110" y="624" as="targetPoint" />
          </mxGeometry>
        </mxCell>
        <mxCell id="_A9WrMa4JBnbBtpXVdZy-10" value="Estudante" style="shape=umlActor;verticalLabelPosition=bottom;verticalAlign=top;html=1;" vertex="1" parent="1">
          <mxGeometry x="-40" y="294" width="30" height="60" as="geometry" />
        </mxCell>
        <mxCell id="_A9WrMa4JBnbBtpXVdZy-11" value="&lt;div&gt;&lt;span style=&quot;font-size: 18px;&quot;&gt;Funcinalidades do Estudante&lt;/span&gt;&lt;/div&gt;" style="text;strokeColor=none;fillColor=none;align=left;verticalAlign=middle;spacingLeft=4;spacingRight=4;overflow=hidden;points=[[0,0.5],[1,0.5]];portConstraint=eastwest;rotatable=0;whiteSpace=wrap;html=1;" vertex="1" parent="1">
          <mxGeometry x="309.25" y="194" width="245" height="30" as="geometry" />
        </mxCell>
        <mxCell id="_A9WrMa4JBnbBtpXVdZy-12" value="Buscar Questões Específicas" style="ellipse;whiteSpace=wrap;html=1;" vertex="1" parent="1">
          <mxGeometry x="120" y="589" width="140" height="70" as="geometry" />
        </mxCell>
        <mxCell id="_A9WrMa4JBnbBtpXVdZy-13" value="Acessar Provas Anteriores do ENADE" style="ellipse;whiteSpace=wrap;html=1;" vertex="1" parent="1">
          <mxGeometry x="120" y="224" width="140" height="70" as="geometry" />
        </mxCell>
        <mxCell id="_A9WrMa4JBnbBtpXVdZy-14" value="Criar Simulados Personalizados" style="ellipse;whiteSpace=wrap;html=1;" vertex="1" parent="1">
          <mxGeometry x="120" y="319" width="140" height="70" as="geometry" />
        </mxCell>
        <mxCell id="_A9WrMa4JBnbBtpXVdZy-15" value="Responder Simulado" style="ellipse;whiteSpace=wrap;html=1;" vertex="1" parent="1">
          <mxGeometry x="110" y="460" width="140" height="70" as="geometry" />
        </mxCell>
        <mxCell id="_A9WrMa4JBnbBtpXVdZy-16" value="Visualizar Estatísticas" style="ellipse;whiteSpace=wrap;html=1;" vertex="1" parent="1">
          <mxGeometry x="120" y="709" width="140" height="70" as="geometry" />
        </mxCell>
        <mxCell id="_A9WrMa4JBnbBtpXVdZy-17" value="Exportar Relatório" style="ellipse;whiteSpace=wrap;html=1;" vertex="1" parent="1">
          <mxGeometry x="361.75" y="669" width="140" height="70" as="geometry" />
        </mxCell>
        <mxCell id="_A9WrMa4JBnbBtpXVdZy-18" value="&amp;lt;&amp;lt;extend&amp;gt;&amp;gt;" style="endArrow=open;endSize=12;dashed=1;html=1;rounded=0;entryX=1;entryY=0.5;entryDx=0;entryDy=0;exitX=0;exitY=0.5;exitDx=0;exitDy=0;" edge="1" parent="1" source="_A9WrMa4JBnbBtpXVdZy-17" target="_A9WrMa4JBnbBtpXVdZy-16">
          <mxGeometry width="160" relative="1" as="geometry">
            <mxPoint x="340" y="684" as="sourcePoint" />
            <mxPoint x="229" y="653" as="targetPoint" />
          </mxGeometry>
        </mxCell>
        <mxCell id="_A9WrMa4JBnbBtpXVdZy-19" value="Ver Explicação da Resposta" style="ellipse;whiteSpace=wrap;html=1;" vertex="1" parent="1">
          <mxGeometry x="361.75" y="460" width="140" height="70" as="geometry" />
        </mxCell>
        <mxCell id="_A9WrMa4JBnbBtpXVdZy-20" value="&amp;lt;&amp;lt;extend&amp;gt;&amp;gt;" style="endArrow=open;endSize=12;dashed=1;html=1;rounded=0;exitX=0;exitY=0.5;exitDx=0;exitDy=0;entryX=1;entryY=0.5;entryDx=0;entryDy=0;" edge="1" parent="1" source="_A9WrMa4JBnbBtpXVdZy-19" target="_A9WrMa4JBnbBtpXVdZy-15">
          <mxGeometry x="-0.0017" width="160" relative="1" as="geometry">
            <mxPoint x="250" y="664" as="sourcePoint" />
            <mxPoint x="367" y="619" as="targetPoint" />
            <mxPoint as="offset" />
          </mxGeometry>
        </mxCell>
        <mxCell id="_A9WrMa4JBnbBtpXVdZy-21" style="edgeStyle=orthogonalEdgeStyle;rounded=0;orthogonalLoop=1;jettySize=auto;html=1;endArrow=none;endFill=0;" edge="1" parent="1" source="_A9WrMa4JBnbBtpXVdZy-22">
          <mxGeometry relative="1" as="geometry">
            <Array as="points">
              <mxPoint x="830" y="410" />
              <mxPoint x="830" y="410" />
            </Array>
            <mxPoint x="760" y="410" as="targetPoint" />
          </mxGeometry>
        </mxCell>
        <mxCell id="_A9WrMa4JBnbBtpXVdZy-22" value="API IA" style="shape=umlActor;verticalLabelPosition=bottom;verticalAlign=top;html=1;" vertex="1" parent="1">
          <mxGeometry x="830" y="379" width="30" height="60" as="geometry" />
        </mxCell>
        <mxCell id="_A9WrMa4JBnbBtpXVdZy-23" value="Gerar Explicação da Resposta" style="ellipse;whiteSpace=wrap;html=1;" vertex="1" parent="1">
          <mxGeometry x="617" y="379" width="140" height="70" as="geometry" />
        </mxCell>
        <mxCell id="_A9WrMa4JBnbBtpXVdZy-24" value="&amp;lt;&amp;lt;extend&amp;gt;&amp;gt;" style="endArrow=open;endSize=12;dashed=1;html=1;rounded=0;exitX=1;exitY=0.5;exitDx=0;exitDy=0;entryX=0;entryY=0.5;entryDx=0;entryDy=0;" edge="1" parent="1" source="_A9WrMa4JBnbBtpXVdZy-19" target="_A9WrMa4JBnbBtpXVdZy-23">
          <mxGeometry x="-0.0017" width="160" relative="1" as="geometry">
            <mxPoint x="605.25" y="484" as="sourcePoint" />
            <mxPoint x="490" y="564" as="targetPoint" />
            <mxPoint as="offset" />
          </mxGeometry>
        </mxCell>
        <mxCell id="_A9WrMa4JBnbBtpXVdZy-25" value="Escolher Área&amp;nbsp;" style="ellipse;whiteSpace=wrap;html=1;" vertex="1" parent="1">
          <mxGeometry x="361.75" y="234" width="140" height="70" as="geometry" />
        </mxCell>
        <mxCell id="_A9WrMa4JBnbBtpXVdZy-26" value="Definir Quantidade de Questões" style="ellipse;whiteSpace=wrap;html=1;" vertex="1" parent="1">
          <mxGeometry x="361.75" y="334" width="140" height="70" as="geometry" />
        </mxCell>
        <mxCell id="_A9WrMa4JBnbBtpXVdZy-27" value="&amp;lt;&amp;lt;include&amp;gt;&amp;gt;" style="endArrow=open;endSize=12;dashed=1;html=1;rounded=0;entryX=0;entryY=0.5;entryDx=0;entryDy=0;" edge="1" parent="1" source="_A9WrMa4JBnbBtpXVdZy-14" target="_A9WrMa4JBnbBtpXVdZy-25">
          <mxGeometry x="-0.0071" width="160" relative="1" as="geometry">
            <mxPoint x="280" y="368" as="sourcePoint" />
            <mxPoint x="414" y="368.44000000000005" as="targetPoint" />
            <mxPoint as="offset" />
          </mxGeometry>
        </mxCell>
        <mxCell id="_A9WrMa4JBnbBtpXVdZy-28" value="&amp;lt;&amp;lt;extend&amp;gt;&amp;gt;" style="endArrow=open;endSize=12;dashed=1;html=1;rounded=0;exitX=0;exitY=0.5;exitDx=0;exitDy=0;entryX=1;entryY=0.5;entryDx=0;entryDy=0;" edge="1" parent="1" source="_A9WrMa4JBnbBtpXVdZy-26" target="_A9WrMa4JBnbBtpXVdZy-14">
          <mxGeometry width="160" relative="1" as="geometry">
            <mxPoint x="190" y="404" as="sourcePoint" />
            <mxPoint x="350" y="404" as="targetPoint" />
          </mxGeometry>
        </mxCell>
        <mxCell id="_A9WrMa4JBnbBtpXVdZy-29" style="edgeStyle=orthogonalEdgeStyle;rounded=0;orthogonalLoop=1;jettySize=auto;html=1;endArrow=none;endFill=0;" edge="1" parent="1" source="_A9WrMa4JBnbBtpXVdZy-30">
          <mxGeometry relative="1" as="geometry">
            <Array as="points">
              <mxPoint x="850" y="654" />
              <mxPoint x="850" y="654" />
            </Array>
            <mxPoint x="720" y="654" as="targetPoint" />
          </mxGeometry>
        </mxCell>
        <mxCell id="_A9WrMa4JBnbBtpXVdZy-30" value="Sistema" style="shape=umlActor;verticalLabelPosition=bottom;verticalAlign=top;html=1;" vertex="1" parent="1">
          <mxGeometry x="830" y="619" width="30" height="60" as="geometry" />
        </mxCell>
        <mxCell id="_A9WrMa4JBnbBtpXVdZy-31" value="Salvar Resposta no Banco de Dados" style="ellipse;whiteSpace=wrap;html=1;" vertex="1" parent="1">
          <mxGeometry x="570" y="619" width="140" height="70" as="geometry" />
        </mxCell>
        <mxCell id="_A9WrMa4JBnbBtpXVdZy-32" value="&amp;lt;&amp;lt;include&amp;gt;&amp;gt;" style="endArrow=open;endSize=12;dashed=1;html=1;rounded=0;entryX=0.5;entryY=0;entryDx=0;entryDy=0;exitX=0.5;exitY=1;exitDx=0;exitDy=0;" edge="1" parent="1" source="_A9WrMa4JBnbBtpXVdZy-23" target="_A9WrMa4JBnbBtpXVdZy-31">
          <mxGeometry width="160" relative="1" as="geometry">
            <mxPoint x="190" y="744" as="sourcePoint" />
            <mxPoint x="350" y="744" as="targetPoint" />
          </mxGeometry>
        </mxCell>
        <mxCell id="_A9WrMa4JBnbBtpXVdZy-33" value="&amp;lt;&amp;lt;extend&amp;gt;&amp;gt;" style="endArrow=open;endSize=12;dashed=1;html=1;rounded=0;exitX=0.5;exitY=0;exitDx=0;exitDy=0;entryX=0.414;entryY=1.014;entryDx=0;entryDy=0;entryPerimeter=0;" edge="1" parent="1" source="_A9WrMa4JBnbBtpXVdZy-15" target="_A9WrMa4JBnbBtpXVdZy-14">
          <mxGeometry x="0.0042" width="160" relative="1" as="geometry">
            <mxPoint x="360" y="539" as="sourcePoint" />
            <mxPoint x="270" y="599" as="targetPoint" />
            <mxPoint as="offset" />
          </mxGeometry>
        </mxCell>
      </root>
    </mxGraphModel>
  </diagram>
  <diagram id="F1sAgbQ2uKJTp1s8SmAG" name="Funcinalidades do Administrador">
    <mxGraphModel dx="2074" dy="-498" grid="1" gridSize="10" guides="1" tooltips="1" connect="1" arrows="1" fold="1" page="1" pageScale="1" pageWidth="827" pageHeight="1169" math="0" shadow="0">
      <root>
        <mxCell id="0" />
        <mxCell id="1" parent="0" />
        <mxCell id="Vqh7pA-izYFb06F08dGr-29" value="" style="rounded=0;whiteSpace=wrap;html=1;" vertex="1" parent="1">
          <mxGeometry x="-40" y="1180" width="930" height="660" as="geometry" />
        </mxCell>
        <mxCell id="Vqh7pA-izYFb06F08dGr-1" value="" style="rounded=0;whiteSpace=wrap;html=1;" vertex="1" parent="1">
          <mxGeometry x="100" y="1230" width="680" height="560" as="geometry" />
        </mxCell>
        <mxCell id="Vqh7pA-izYFb06F08dGr-2" value="&lt;div&gt;&lt;span style=&quot;font-size: 18px;&quot;&gt;Funcinalidades do Administrador&lt;/span&gt;&lt;/div&gt;" style="text;strokeColor=none;fillColor=none;align=left;verticalAlign=middle;spacingLeft=4;spacingRight=4;overflow=hidden;points=[[0,0.5],[1,0.5]];portConstraint=eastwest;rotatable=0;whiteSpace=wrap;html=1;" vertex="1" parent="1">
          <mxGeometry x="296.12" y="1240" width="286.5" height="30" as="geometry" />
        </mxCell>
        <mxCell id="Vqh7pA-izYFb06F08dGr-3" style="edgeStyle=orthogonalEdgeStyle;rounded=0;orthogonalLoop=1;jettySize=auto;html=1;endArrow=none;endFill=0;" edge="1" parent="1">
          <mxGeometry relative="1" as="geometry">
            <mxPoint x="40" y="1425" as="sourcePoint" />
            <Array as="points">
              <mxPoint x="80" y="1425" />
              <mxPoint x="80" y="1385" />
            </Array>
            <mxPoint x="110" y="1385" as="targetPoint" />
          </mxGeometry>
        </mxCell>
        <mxCell id="Vqh7pA-izYFb06F08dGr-4" style="edgeStyle=orthogonalEdgeStyle;rounded=0;orthogonalLoop=1;jettySize=auto;html=1;endArrow=none;endFill=0;" edge="1" parent="1">
          <mxGeometry relative="1" as="geometry">
            <mxPoint x="40" y="1445" as="sourcePoint" />
            <Array as="points">
              <mxPoint x="70" y="1445" />
              <mxPoint x="70" y="1665" />
            </Array>
            <mxPoint x="110" y="1665" as="targetPoint" />
          </mxGeometry>
        </mxCell>
        <mxCell id="Vqh7pA-izYFb06F08dGr-5" style="edgeStyle=orthogonalEdgeStyle;rounded=0;orthogonalLoop=1;jettySize=auto;html=1;endArrow=none;endFill=0;" edge="1" parent="1">
          <mxGeometry relative="1" as="geometry">
            <mxPoint x="40" y="1435" as="sourcePoint" />
            <Array as="points">
              <mxPoint x="80" y="1435" />
              <mxPoint x="80" y="1555" />
            </Array>
            <mxPoint x="110" y="1555" as="targetPoint" />
          </mxGeometry>
        </mxCell>
        <mxCell id="Vqh7pA-izYFb06F08dGr-6" value="Administrador" style="shape=umlActor;verticalLabelPosition=bottom;verticalAlign=top;html=1;" vertex="1" parent="1">
          <mxGeometry x="10" y="1400" width="30" height="60" as="geometry" />
        </mxCell>
        <mxCell id="Vqh7pA-izYFb06F08dGr-7" value="Gerenciar Questões&amp;nbsp;" style="ellipse;whiteSpace=wrap;html=1;" vertex="1" parent="1">
          <mxGeometry x="116.75" y="1350" width="140" height="70" as="geometry" />
        </mxCell>
        <mxCell id="Vqh7pA-izYFb06F08dGr-8" value="Cadastrar Questão&amp;nbsp;" style="ellipse;whiteSpace=wrap;html=1;" vertex="1" parent="1">
          <mxGeometry x="352.75" y="1440" width="140" height="70" as="geometry" />
        </mxCell>
        <mxCell id="Vqh7pA-izYFb06F08dGr-9" style="edgeStyle=orthogonalEdgeStyle;rounded=0;orthogonalLoop=1;jettySize=auto;html=1;endArrow=none;endFill=0;" edge="1" parent="1" source="Vqh7pA-izYFb06F08dGr-10">
          <mxGeometry relative="1" as="geometry">
            <Array as="points">
              <mxPoint x="790" y="1445" />
              <mxPoint x="790" y="1385" />
            </Array>
            <mxPoint x="770" y="1385" as="targetPoint" />
          </mxGeometry>
        </mxCell>
        <mxCell id="Vqh7pA-izYFb06F08dGr-10" value="Sistema" style="shape=umlActor;verticalLabelPosition=bottom;verticalAlign=top;html=1;" vertex="1" parent="1">
          <mxGeometry x="797" y="1410" width="30" height="60" as="geometry" />
        </mxCell>
        <mxCell id="Vqh7pA-izYFb06F08dGr-11" value="Salvar Alteração" style="ellipse;whiteSpace=wrap;html=1;" vertex="1" parent="1">
          <mxGeometry x="620" y="1350" width="140" height="70" as="geometry" />
        </mxCell>
        <mxCell id="Vqh7pA-izYFb06F08dGr-12" value="Revisar Explicações da IA" style="ellipse;whiteSpace=wrap;html=1;" vertex="1" parent="1">
          <mxGeometry x="116.75" y="1520" width="140" height="70" as="geometry" />
        </mxCell>
        <mxCell id="Vqh7pA-izYFb06F08dGr-13" value="Gerenciar Usuário" style="ellipse;whiteSpace=wrap;html=1;" vertex="1" parent="1">
          <mxGeometry x="116.75" y="1630" width="140" height="70" as="geometry" />
        </mxCell>
        <mxCell id="Vqh7pA-izYFb06F08dGr-14" value="&amp;lt;&amp;lt;extend&amp;gt;&amp;gt;" style="endArrow=open;endSize=12;dashed=1;html=1;rounded=0;exitX=0;exitY=0.5;exitDx=0;exitDy=0;entryX=1;entryY=1;entryDx=0;entryDy=0;" edge="1" parent="1" source="Vqh7pA-izYFb06F08dGr-8" target="Vqh7pA-izYFb06F08dGr-7">
          <mxGeometry width="160" relative="1" as="geometry">
            <mxPoint x="313.5" y="1425" as="sourcePoint" />
            <mxPoint x="473.5" y="1425" as="targetPoint" />
          </mxGeometry>
        </mxCell>
        <mxCell id="Vqh7pA-izYFb06F08dGr-15" value="&amp;lt;&amp;lt;extend&amp;gt;&amp;gt;" style="endArrow=open;endSize=12;dashed=1;html=1;rounded=0;exitX=0;exitY=0.5;exitDx=0;exitDy=0;entryX=1;entryY=0.5;entryDx=0;entryDy=0;" edge="1" parent="1" source="Vqh7pA-izYFb06F08dGr-11" target="Vqh7pA-izYFb06F08dGr-8">
          <mxGeometry x="0.1833" y="-5" width="160" relative="1" as="geometry">
            <mxPoint x="260" y="1575" as="sourcePoint" />
            <mxPoint x="570" y="1390" as="targetPoint" />
            <mxPoint as="offset" />
          </mxGeometry>
        </mxCell>
        <mxCell id="Vqh7pA-izYFb06F08dGr-16" value="O administrador pode cadastrar e não querer salvar a questão&amp;nbsp;" style="shape=note;whiteSpace=wrap;html=1;backgroundOutline=1;darkOpacity=0.05;align=left;size=23;" vertex="1" parent="1">
          <mxGeometry x="530" y="1535" width="200" height="80" as="geometry" />
        </mxCell>
        <mxCell id="Vqh7pA-izYFb06F08dGr-17" value="" style="endArrow=none;dashed=1;endFill=0;endSize=12;html=1;rounded=0;exitX=0.5;exitY=0;exitDx=0;exitDy=0;exitPerimeter=0;" edge="1" parent="1">
          <mxGeometry width="160" relative="1" as="geometry">
            <mxPoint x="620" y="1535" as="sourcePoint" />
            <mxPoint x="600" y="1405" as="targetPoint" />
          </mxGeometry>
        </mxCell>
        <mxCell id="Vqh7pA-izYFb06F08dGr-18" value="Excluir Questão" style="ellipse;whiteSpace=wrap;html=1;" vertex="1" parent="1">
          <mxGeometry x="352.75" y="1280" width="140" height="70" as="geometry" />
        </mxCell>
        <mxCell id="Vqh7pA-izYFb06F08dGr-19" value="&amp;lt;&amp;lt;extend&amp;gt;&amp;gt;" style="endArrow=open;endSize=12;dashed=1;html=1;rounded=0;exitX=0;exitY=0.5;exitDx=0;exitDy=0;entryX=1;entryY=0;entryDx=0;entryDy=0;" edge="1" parent="1" source="Vqh7pA-izYFb06F08dGr-18" target="Vqh7pA-izYFb06F08dGr-7">
          <mxGeometry x="-0.0074" width="160" relative="1" as="geometry">
            <mxPoint x="403" y="1470" as="sourcePoint" />
            <mxPoint x="563" y="1470" as="targetPoint" />
            <mxPoint as="offset" />
          </mxGeometry>
        </mxCell>
        <mxCell id="Vqh7pA-izYFb06F08dGr-20" value="Alterar Questão" style="ellipse;whiteSpace=wrap;html=1;" vertex="1" parent="1">
          <mxGeometry x="352.75" y="1360" width="140" height="70" as="geometry" />
        </mxCell>
        <mxCell id="Vqh7pA-izYFb06F08dGr-21" value="&amp;lt;&amp;lt;extend&amp;gt;&amp;gt;" style="endArrow=open;endSize=12;dashed=1;html=1;rounded=0;exitX=0;exitY=0.5;exitDx=0;exitDy=0;entryX=1;entryY=0.5;entryDx=0;entryDy=0;" edge="1" parent="1" source="Vqh7pA-izYFb06F08dGr-20" target="Vqh7pA-izYFb06F08dGr-7">
          <mxGeometry x="-0.003" width="160" relative="1" as="geometry">
            <mxPoint x="403" y="1470" as="sourcePoint" />
            <mxPoint x="563" y="1470" as="targetPoint" />
            <mxPoint as="offset" />
          </mxGeometry>
        </mxCell>
        <mxCell id="Vqh7pA-izYFb06F08dGr-22" value="Cadastrar Administradores" style="ellipse;whiteSpace=wrap;html=1;" vertex="1" parent="1">
          <mxGeometry x="344" y="1690" width="140" height="70" as="geometry" />
        </mxCell>
        <mxCell id="Vqh7pA-izYFb06F08dGr-23" value="&amp;lt;&amp;lt;extend&amp;gt;&amp;gt;" style="endArrow=open;endSize=12;dashed=1;html=1;rounded=0;exitX=0;exitY=0.5;exitDx=0;exitDy=0;entryX=1;entryY=1;entryDx=0;entryDy=0;" edge="1" parent="1" source="Vqh7pA-izYFb06F08dGr-22" target="Vqh7pA-izYFb06F08dGr-13">
          <mxGeometry x="0.0015" width="160" relative="1" as="geometry">
            <mxPoint x="350" y="1430" as="sourcePoint" />
            <mxPoint x="510" y="1430" as="targetPoint" />
            <mxPoint as="offset" />
          </mxGeometry>
        </mxCell>
        <mxCell id="Vqh7pA-izYFb06F08dGr-24" value="Deletar Usuário" style="ellipse;whiteSpace=wrap;html=1;" vertex="1" parent="1">
          <mxGeometry x="342.75" y="1570" width="140" height="70" as="geometry" />
        </mxCell>
        <mxCell id="Vqh7pA-izYFb06F08dGr-25" value="&amp;lt;&amp;lt;extend&amp;gt;&amp;gt;" style="endArrow=open;endSize=12;dashed=1;html=1;rounded=0;exitX=0;exitY=0.5;exitDx=0;exitDy=0;entryX=0.961;entryY=0.313;entryDx=0;entryDy=0;entryPerimeter=0;" edge="1" parent="1" source="Vqh7pA-izYFb06F08dGr-24" target="Vqh7pA-izYFb06F08dGr-13">
          <mxGeometry x="0.0015" width="160" relative="1" as="geometry">
            <mxPoint x="360" y="1704" as="sourcePoint" />
            <mxPoint x="260" y="1630" as="targetPoint" />
            <mxPoint as="offset" />
          </mxGeometry>
        </mxCell>
        <mxCell id="Vqh7pA-izYFb06F08dGr-26" value="&amp;lt;&amp;lt;extend&amp;gt;&amp;gt;" style="endArrow=open;endSize=12;dashed=1;html=1;rounded=0;exitX=0;exitY=0.5;exitDx=0;exitDy=0;entryX=1;entryY=0.5;entryDx=0;entryDy=0;" edge="1" parent="1" source="Vqh7pA-izYFb06F08dGr-11" target="Vqh7pA-izYFb06F08dGr-20">
          <mxGeometry x="0.1833" y="-5" width="160" relative="1" as="geometry">
            <mxPoint x="630" y="1395" as="sourcePoint" />
            <mxPoint x="521" y="1485" as="targetPoint" />
            <mxPoint as="offset" />
          </mxGeometry>
        </mxCell>
        <mxCell id="Vqh7pA-izYFb06F08dGr-27" value="&amp;lt;&amp;lt;extend&amp;gt;&amp;gt;" style="endArrow=open;endSize=12;dashed=1;html=1;rounded=0;exitX=0;exitY=0.5;exitDx=0;exitDy=0;entryX=1;entryY=0.5;entryDx=0;entryDy=0;" edge="1" parent="1" source="Vqh7pA-izYFb06F08dGr-11" target="Vqh7pA-izYFb06F08dGr-18">
          <mxGeometry x="0.1833" y="-5" width="160" relative="1" as="geometry">
            <mxPoint x="630" y="1395" as="sourcePoint" />
            <mxPoint x="521" y="1405" as="targetPoint" />
            <mxPoint as="offset" />
          </mxGeometry>
        </mxCell>
        <mxCell id="Vqh7pA-izYFb06F08dGr-28" value="&amp;lt;&amp;lt;extend&amp;gt;&amp;gt;" style="endArrow=open;endSize=12;dashed=1;html=1;rounded=0;exitX=0.5;exitY=0;exitDx=0;exitDy=0;entryX=0.5;entryY=1;entryDx=0;entryDy=0;" edge="1" parent="1" source="Vqh7pA-izYFb06F08dGr-12" target="Vqh7pA-izYFb06F08dGr-7">
          <mxGeometry width="160" relative="1" as="geometry">
            <mxPoint x="440" y="1460" as="sourcePoint" />
            <mxPoint x="600" y="1460" as="targetPoint" />
          </mxGeometry>
        </mxCell>
      </root>
    </mxGraphModel>
  </diagram>
</mxfile>
